<svg width="300" height="300" viewBox="0 0 300 300" fill="none" xmlns="http://www.w3.org/2000/svg">
<path d="M0 150.002C0 67.1526 67.158 0 149.998 0C232.842 0 300 67.1526 300 150.002C300 232.84 232.842 299.996 149.998 299.996C67.158 299.996 0 232.84 0 150.002Z" fill="#3A0CA3"/>
<path d="M238.511 91.487L208.511 61.4881C202.025 55.0014 191.509 55.0026 185.024 61.4881L138.69 107.822C132.204 114.309 132.204 124.824 138.689 131.311L168.688 161.31C175.175 167.796 185.691 167.795 192.176 161.308L238.511 114.974C244.995 108.49 244.996 97.973 238.511 91.487ZM189.006 142.346C185.204 146.148 179.039 146.149 175.237 142.347L157.652 124.761C153.85 120.959 153.85 114.795 157.652 110.992L188.194 80.451C191.995 76.6496 198.16 76.649 201.962 80.451L219.548 98.0371C223.35 101.839 223.349 108.003 219.548 111.805L189.006 142.346Z" fill="white"/>
<path d="M161.311 168.686L131.312 138.688C124.826 132.202 114.31 132.202 107.825 138.688L61.4902 185.023C55.0047 191.508 55.0041 202.024 61.4902 208.51L91.4897 238.509C97.9751 244.995 108.492 244.994 114.977 238.509L161.312 192.173C167.796 185.688 167.797 175.172 161.311 168.686ZM111.806 219.546C108.004 223.348 101.841 223.349 98.038 219.546L80.4525 201.961C76.6499 198.159 76.6505 191.994 80.4525 188.192L110.994 157.65C114.796 153.849 120.96 153.848 124.763 157.65L142.348 175.236C146.15 179.039 146.15 185.203 142.348 189.004L111.806 219.546Z" fill="white"/>
<path d="M185.57 115.893L184.107 114.429C179.426 109.747 171.808 109.747 167.127 114.429L114.431 167.124C109.75 171.806 109.75 179.423 114.431 184.104L115.894 185.568C120.576 190.248 128.193 190.248 132.875 185.568L185.57 132.872C190.251 128.191 190.251 120.573 185.57 115.893Z" fill="#3A0CA3"/>
<path d="M130.24 182.933C127.006 186.166 121.762 186.167 118.529 182.933L117.065 181.469C113.831 178.236 113.831 172.992 117.065 169.759L169.761 117.063C172.995 113.829 178.238 113.829 181.472 117.064L182.935 118.527C186.168 121.761 186.169 127.004 182.935 130.237L130.24 182.933Z" fill="white"/>
</svg>
